<?xml version="1.0" encoding="utf-8"?>
<!-- Generator: Adobe Illustrator 24.2.0, SVG Export Plug-In . SVG Version: 6.00 Build 0)  -->
<svg version="1.1" xmlns="http://www.w3.org/2000/svg" xmlns:xlink="http://www.w3.org/1999/xlink" x="0px" y="0px"
	 viewBox="0 0 400 400" style="enable-background:new 0 0 400 400;" xml:space="preserve">
<g id="Layer_2">
</g>
<g id="Layer_2_copy">
</g>
<g id="Layer_2_copy_2">
</g>
<g id="Layer_2_copy_3">
</g>
<g id="Layer_2_copy_7">
</g>
<g id="Layer_2_copy_6">
</g>
<g id="Layer_2_copy_5">
</g>
<g id="Layer_2_copy_4">
</g>
<g id="Layer_2_copy_15">
</g>
<g id="Layer_2_copy_14">
</g>
<g id="Layer_2_copy_13">
</g>
<g id="Layer_2_copy_12">
</g>
<g id="Layer_2_copy_11">
	<path d="M173.7,300.2L173.7,300.2c0,41.4-33.6,75-75,75h0c-41.4,0-75-33.6-75-75v0c0-41.4,33.6-75,75-75h0
		C140.1,225.2,173.7,258.8,173.7,300.2z"/>
	<path d="M173.7,100L173.7,100c0,41.4-33.6,75-75,75h0c-41.4,0-75-33.6-75-75v0c0-41.4,33.6-75,75-75h0
		C140.1,25,173.7,58.5,173.7,100z"/>
	<rect x="123.8" y="125.1" transform="matrix(6.123234e-17 -1 1 6.123234e-17 98.7993 498.9834)" width="350.3" height="150"/>
</g>
<g id="Layer_2_copy_10">
</g>
<g id="Layer_2_copy_9">
</g>
<g id="Layer_2_copy_8">
</g>
</svg>
