<?xml version="1.0" encoding="utf-8"?>
<!-- Generator: Adobe Illustrator 24.2.0, SVG Export Plug-In . SVG Version: 6.00 Build 0)  -->
<svg version="1.1" xmlns="http://www.w3.org/2000/svg" xmlns:xlink="http://www.w3.org/1999/xlink" x="0px" y="0px"
	 viewBox="0 0 400 400" style="enable-background:new 0 0 400 400;" xml:space="preserve">
<g id="Layer_2">
</g>
<g id="Layer_2_copy">
</g>
<g id="Layer_2_copy_2">
</g>
<g id="Layer_2_copy_3">
</g>
<g id="Layer_2_copy_7">
	<path d="M300.3,225.2L300.3,225.2c41.4,0,75,33.6,75,75v0c0,41.4-33.6,75-75,75h0c-41.4,0-75-33.6-75-75v0
		C225.3,258.8,258.8,225.2,300.3,225.2z"/>
	<path d="M100,225.2L100,225.2c41.4,0,75,33.6,75,75v0c0,41.4-33.6,75-75,75h0c-41.4,0-75-33.6-75-75v0
		C25,258.8,58.6,225.2,100,225.2z"/>
	<rect x="25" y="25" transform="matrix(-1 -1.224647e-16 1.224647e-16 -1 400.2632 200)" width="350.3" height="150"/>
</g>
<g id="Layer_2_copy_6">
</g>
<g id="Layer_2_copy_5">
</g>
<g id="Layer_2_copy_4">
</g>
<g id="Layer_2_copy_15">
</g>
<g id="Layer_2_copy_14">
</g>
<g id="Layer_2_copy_13">
</g>
<g id="Layer_2_copy_12">
</g>
<g id="Layer_2_copy_11">
</g>
<g id="Layer_2_copy_10">
</g>
<g id="Layer_2_copy_9">
</g>
<g id="Layer_2_copy_8">
</g>
</svg>
