<?xml version="1.0" encoding="utf-8"?>
<!-- Generator: Adobe Illustrator 24.2.0, SVG Export Plug-In . SVG Version: 6.00 Build 0)  -->
<svg version="1.1" xmlns="http://www.w3.org/2000/svg" xmlns:xlink="http://www.w3.org/1999/xlink" x="0px" y="0px"
	 viewBox="0 0 400 400" style="enable-background:new 0 0 400 400;" xml:space="preserve">
<g id="Layer_2">
</g>
<g id="Layer_2_copy">
</g>
<g id="Layer_2_copy_2">
</g>
<g id="Layer_2_copy_3">
</g>
<g id="Layer_2_copy_7">
</g>
<g id="Layer_2_copy_6">
</g>
<g id="Layer_2_copy_5">
</g>
<g id="Layer_2_copy_4">
</g>
<g id="Layer_2_copy_15">
	<path d="M223.9,100L223.9,100c0-41.4,33.6-75,75-75h0c41.4,0,75,33.6,75,75v0c0,41.4-33.6,75-75,75h0
		C257.5,175,223.9,141.4,223.9,100z"/>
	<path d="M223.9,300.2L223.9,300.2c0-41.4,33.6-75,75-75h0c41.4,0,75,33.6,75,75v0c0,41.4-33.6,75-75,75h0
		C257.5,375.2,223.9,341.6,223.9,300.2z"/>
	<rect x="-76.4" y="125.1" transform="matrix(-1.836970e-16 1 -1 -1.836970e-16 298.7992 101.385)" width="350.3" height="150"/>
</g>
<g id="Layer_2_copy_14">
</g>
<g id="Layer_2_copy_13">
</g>
<g id="Layer_2_copy_12">
</g>
<g id="Layer_2_copy_11">
</g>
<g id="Layer_2_copy_10">
</g>
<g id="Layer_2_copy_9">
</g>
<g id="Layer_2_copy_8">
</g>
</svg>
