<?xml version="1.0" encoding="utf-8"?>
<!-- Generator: Adobe Illustrator 24.2.0, SVG Export Plug-In . SVG Version: 6.00 Build 0)  -->
<svg version="1.1" xmlns="http://www.w3.org/2000/svg" xmlns:xlink="http://www.w3.org/1999/xlink" x="0px" y="0px"
	 viewBox="0 0 1243.9 160.9" style="enable-background:new 0 0 1243.9 160.9;" xml:space="preserve">
<style type="text/css">
	.st0{fill:#808080;}
	.st1{fill:#37BFBF;}
</style>
<g id="Layer_2">
	<rect x="712.7" y="64.3" class="st0" width="531.2" height="32.2"/>
	<rect x="727.2" class="st1" width="160.9" height="160.9"/>
	<rect x="905.7" class="st1" width="160.9" height="160.9"/>
	<rect x="1083" class="st1" width="160.9" height="160.9"/>
	<g>
		<path d="M1153.9,118.8L1153.9,118.8c0,15.9-12.9,28.7-28.7,28.7l0,0c-15.9,0-28.7-12.9-28.7-28.7v0c0-15.9,12.9-28.7,28.7-28.7
			l0,0C1141,90.1,1153.9,102.9,1153.9,118.8z"/>
		<path d="M1153.9,42.1L1153.9,42.1c0,15.9-12.9,28.7-28.7,28.7l0,0c-15.9,0-28.7-12.9-28.7-28.7v0c0-15.9,12.9-28.7,28.7-28.7l0,0
			C1141,13.4,1153.9,26.3,1153.9,42.1z"/>
		<rect x="1134.8" y="51.7" transform="matrix(6.123234e-17 -1 1 6.123234e-17 1121.3618 1282.2614)" width="134.1" height="57.4"/>
	</g>
	<g>
		<rect x="918.5" y="90.1" transform="matrix(6.123234e-17 -1 1 6.123234e-17 828.4526 1066.0315)" width="57.4" height="57.4"/>
		<path d="M976,42.1L976,42.1c0,15.9-12.9,28.7-28.7,28.7h0c-15.9,0-28.7-12.9-28.7-28.7v0c0-15.9,12.9-28.7,28.7-28.7h0
			C963.1,13.4,976,26.3,976,42.1z"/>
		<rect x="956.8" y="51.7" transform="matrix(6.123234e-17 -1 1 6.123234e-17 943.4413 1104.3409)" width="134.1" height="57.4"/>
	</g>
</g>
<g id="Layer_2_copy">
	<rect y="64.3" class="st0" width="532.3" height="32.2"/>
	<rect class="st1" width="160.9" height="160.9"/>
	<g>
		<path d="M42.1,70.9L42.1,70.9c-15.9,0-28.7-12.9-28.7-28.7v0c0-15.9,12.9-28.7,28.7-28.7h0c15.9,0,28.7,12.9,28.7,28.7v0
			C70.8,58,58,70.9,42.1,70.9z"/>
		<path d="M118.8,70.9L118.8,70.9c-15.9,0-28.7-12.9-28.7-28.7v0c0-15.9,12.9-28.7,28.7-28.7h0c15.9,0,28.7,12.9,28.7,28.7v0
			C147.5,58,134.6,70.9,118.8,70.9z"/>
		<rect x="13.4" y="90.1" width="134.1" height="57.4"/>
	</g>
	<rect x="176.3" class="st1" width="160.9" height="160.9"/>
	<g>
		<rect x="190.6" y="12.9" width="57.4" height="57.4"/>
		<rect x="267.3" y="12.9" width="57.4" height="57.4"/>
		<rect x="190.6" y="89.5" width="134.1" height="57.4"/>
	</g>
	<rect x="352.6" class="st1" width="160.9" height="160.9"/>
	<g>
		<rect x="366" y="13.4" width="57.4" height="57.4"/>
		<path d="M471.4,70.9L471.4,70.9c-15.9,0-28.7-12.9-28.7-28.7v0c0-15.9,12.9-28.7,28.7-28.7h0c15.9,0,28.7,12.9,28.7,28.7v0
			C500.1,58,487.2,70.9,471.4,70.9z"/>
		<rect x="366" y="90.1" width="134.1" height="57.4"/>
	</g>
	<g>
		<rect x="740.6" y="13.4" width="57.4" height="57.4"/>
		<path d="M846,70.8L846,70.8c-15.9,0-28.7-12.9-28.7-28.7v0c0-15.9,12.9-28.7,28.7-28.7h0c15.9,0,28.7,12.9,28.7,28.7v0
			C874.7,58,861.9,70.8,846,70.8z"/>
		<rect x="740.6" y="90.1" width="134.1" height="57.4"/>
	</g>
</g>
</svg>
