<?xml version="1.0" encoding="utf-8"?>
<!-- Generator: Adobe Illustrator 24.2.0, SVG Export Plug-In . SVG Version: 6.00 Build 0)  -->
<svg version="1.1" id="Layer_2" xmlns="http://www.w3.org/2000/svg" xmlns:xlink="http://www.w3.org/1999/xlink" x="0px" y="0px"
	 viewBox="0 0 1080 160.9" style="enable-background:new 0 0 1080 160.9;" xml:space="preserve">
<style type="text/css">
	.st0{fill:#808080;}
	.st1{fill:#37BFBF;}
</style>
<rect y="64.3" class="st0" width="1080" height="32.2"/>
<rect x="14.5" class="st1" width="160.9" height="160.9"/>
<g>
	<rect x="27.9" y="90.1" transform="matrix(6.123234e-17 -1 1 6.123234e-17 -62.1304 175.4123)" width="57.4" height="57.4"/>
	<path d="M85.4,42.1L85.4,42.1c0,15.9-12.9,28.7-28.7,28.7h0c-15.9,0-28.7-12.9-28.7-28.7v0c0-15.9,12.9-28.7,28.7-28.7h0
		C72.5,13.4,85.4,26.2,85.4,42.1z"/>
	<rect x="66.2" y="51.7" transform="matrix(6.123234e-17 -1 1 6.123234e-17 52.8584 213.7218)" width="134.1" height="57.4"/>
</g>
<rect x="193" class="st1" width="160.9" height="160.9"/>
<g>
	<rect x="206.4" y="13.4" width="57.4" height="57.4"/>
	<rect x="283" y="13.4" width="57.4" height="57.4"/>
	<rect x="206.4" y="90.1" width="134.1" height="57.4"/>
</g>
<rect x="370.3" class="st1" width="160.9" height="160.9"/>
<g>
	<path d="M441.2,118.8L441.2,118.8c0,15.9-12.9,28.7-28.7,28.7h0c-15.9,0-28.7-12.9-28.7-28.7v0c0-15.9,12.9-28.7,28.7-28.7h0
		C428.3,90.1,441.2,102.9,441.2,118.8z"/>
	<path d="M441.2,42.1L441.2,42.1c0,15.9-12.9,28.7-28.7,28.7h0c-15.9,0-28.7-12.9-28.7-28.7v0c0-15.9,12.9-28.7,28.7-28.7h0
		C428.3,13.4,441.2,26.3,441.2,42.1z"/>
	<rect x="422.1" y="51.7" transform="matrix(6.123234e-17 -1 1 6.123234e-17 408.6628 569.5624)" width="134.1" height="57.4"/>
</g>
<rect x="547.7" class="st1" width="160.9" height="160.9"/>
<g>
	<path d="M589.8,70.9L589.8,70.9c-15.9,0-28.7-12.9-28.7-28.7v0c0-15.9,12.9-28.7,28.7-28.7h0c15.9,0,28.7,12.9,28.7,28.7v0
		C618.5,58,605.7,70.9,589.8,70.9z"/>
	<path d="M666.5,70.9L666.5,70.9c-15.9,0-28.7-12.9-28.7-28.7v0c0-15.9,12.9-28.7,28.7-28.7h0c15.9,0,28.7,12.9,28.7,28.7v0
		C695.2,58,682.3,70.9,666.5,70.9z"/>
	<rect x="561.1" y="90.1" width="134.1" height="57.4"/>
</g>
<rect x="724" class="st1" width="160.9" height="160.9"/>
<g>
	<rect x="738.3" y="12.9" width="57.4" height="57.4"/>
	<rect x="815" y="12.9" width="57.4" height="57.4"/>
	<rect x="738.3" y="89.5" width="134.1" height="57.4"/>
</g>
<rect x="900.3" class="st1" width="160.9" height="160.9"/>
<g>
	<rect x="913.7" y="13.4" width="57.4" height="57.4"/>
	<path d="M1019.1,70.9L1019.1,70.9c-15.9,0-28.7-12.9-28.7-28.7v0c0-15.9,12.9-28.7,28.7-28.7h0c15.9,0,28.7,12.9,28.7,28.7v0
		C1047.8,58,1034.9,70.9,1019.1,70.9z"/>
	<rect x="913.7" y="90.1" width="134.1" height="57.4"/>
</g>
</svg>
